<?xml version="1.0" encoding="utf-8"?>
<!-- Generator: Adobe Illustrator 25.0.0, SVG Export Plug-In . SVG Version: 6.00 Build 0)  -->
<svg version="1.1" id="Layer_1" xmlns="http://www.w3.org/2000/svg" xmlns:xlink="http://www.w3.org/1999/xlink" x="0px" y="0px"
	 viewBox="0 0 2160 540" style="enable-background:new 0 0 2160 540;" xml:space="preserve">
<style type="text/css">
	.st0{fill:#065450;}
	.st1{fill:#FFFFFF;}
	.st2{fill:#00A2AA;}
</style>
<g>
	<g>
		<path class="st2" d="M552.51,318.32H438.1c-4.33,0-7.63,4.02-6.67,8.24c2.01,8.82,6.03,16,12.06,21.54
			c7.81,7.18,17.43,10.77,28.84,10.77c15.13,0,26.25-5.97,33.37-17.9c1.23-2.06,3.44-3.33,5.83-3.33h34.07
			c4.88,0,8.23,5.01,6.28,9.48c-5.54,12.69-14.1,23.41-25.68,32.18c-14.37,10.88-32,16.32-52.92,16.32
			c-16.9,0-32.06-3.75-45.47-11.25c-13.42-7.49-23.87-18.11-31.37-31.84c-7.5-13.73-11.25-29.57-11.25-47.53
			c0-18.17,3.69-34.11,11.09-47.85c7.39-13.73,17.75-24.29,31.05-31.68c13.31-7.39,28.62-11.09,45.94-11.09
			c16.69,0,31.63,3.59,44.84,10.77c13.2,7.19,23.45,17.38,30.74,30.58c7.29,13.21,10.93,28.36,10.93,45.47
			c0,3.92-0.16,7.6-0.49,11.04C558.96,315.71,555.99,318.32,552.51,318.32z M506.26,288.54c4.23,0,7.57-3.85,6.71-7.99
			c-1.61-7.76-5.44-14.24-11.5-19.42c-8.03-6.86-17.85-10.3-29.47-10.3c-10.99,0-20.23,3.33-27.73,9.98
			c-5.49,4.87-9.43,11.13-11.8,18.78c-1.37,4.43,1.85,8.94,6.48,8.94H506.26z"/>
		<path class="st2" d="M591.78,257.32c7.39-13.62,17.64-24.19,30.74-31.69c13.09-7.49,28.09-11.25,45-11.25
			c21.75,0,39.77,5.44,54.03,16.32c11.99,9.15,20.65,21.39,26,36.74c1.54,4.42-1.77,9.05-6.45,9.05h-34.1c-2.7,0-5.1-1.62-6.22-4.07
			c-2.59-5.69-6.34-10.3-11.24-13.83c-6.02-4.33-13.47-6.5-22.34-6.5c-12.67,0-22.71,4.59-30.1,13.78
			c-7.4,9.19-11.09,22.24-11.09,39.13c0,16.69,3.69,29.63,11.09,38.82c7.39,9.19,17.43,13.78,30.1,13.78
			c16.37,0,27.56-6.67,33.57-20.02c1.11-2.45,3.52-4.07,6.21-4.07h34c4.75,0,8.02,4.74,6.4,9.2c-5.37,14.75-14.04,26.79-26,36.11
			c-14.37,11.2-32.32,16.79-53.87,16.79c-16.9,0-31.9-3.75-45-11.25c-13.1-7.49-23.34-18.06-30.74-31.69
			c-7.4-13.62-11.09-29.52-11.09-47.69C580.69,286.85,584.38,270.95,591.78,257.32z"/>
		<path class="st2" d="M785.85,188.88c-5.18-4.96-7.76-11.14-7.76-18.54c0-7.39,2.59-13.57,7.76-18.54
			c5.17-4.96,11.67-7.45,19.49-7.45c7.81,0,14.31,2.48,19.49,7.45c5.17,4.97,7.76,11.14,7.76,18.54c0,7.4-2.59,13.58-7.76,18.54
			c-5.18,4.97-11.67,7.45-19.49,7.45C797.52,196.33,791.03,193.85,785.85,188.88z M827.2,224.05v161.92c0,3.76-3.05,6.81-6.81,6.81
			h-30.74c-3.76,0-6.81-3.05-6.81-6.81V224.05c0-3.76,3.05-6.81,6.81-6.81h30.74C824.15,217.24,827.2,220.29,827.2,224.05z"/>
		<path class="st2" d="M870.61,257.32c7.39-13.62,17.64-24.19,30.74-31.69c13.09-7.49,28.09-11.25,45-11.25
			c21.75,0,39.77,5.44,54.03,16.32c11.99,9.15,20.65,21.39,26,36.74c1.54,4.42-1.77,9.05-6.45,9.05h-34.1c-2.7,0-5.1-1.62-6.22-4.07
			c-2.59-5.69-6.34-10.3-11.24-13.83c-6.02-4.33-13.47-6.5-22.34-6.5c-12.67,0-22.71,4.59-30.1,13.78
			c-7.4,9.19-11.09,22.24-11.09,39.13c0,16.69,3.69,29.63,11.09,38.82c7.39,9.19,17.43,13.78,30.1,13.78
			c16.37,0,27.56-6.67,33.57-20.02c1.11-2.45,3.52-4.07,6.21-4.07h34c4.75,0,8.02,4.74,6.4,9.2c-5.37,14.75-14.04,26.79-26,36.11
			c-14.37,11.2-32.32,16.79-53.87,16.79c-16.9,0-31.9-3.75-45-11.25c-13.1-7.49-23.34-18.06-30.74-31.69
			c-7.4-13.62-11.09-29.52-11.09-47.69C859.52,286.85,863.22,270.95,870.61,257.32z"/>
		<path class="st2" d="M1106.04,165.11v220.86c0,3.76-3.05,6.81-6.81,6.81h-30.74c-3.76,0-6.81-3.05-6.81-6.81V165.11
			c0-3.76,3.05-6.81,6.81-6.81h30.74C1102.99,158.3,1106.04,161.35,1106.04,165.11z"/>
		<path class="st2" d="M1182.09,384.39c-13.52-7.49-24.14-18.11-31.85-31.84c-7.71-13.73-11.56-29.57-11.56-47.53
			c0-17.95,3.96-33.8,11.88-47.53c7.92-13.73,18.74-24.34,32.48-31.85c13.73-7.49,29.04-11.25,45.95-11.25
			c16.9,0,32.21,3.75,45.94,11.25c13.73,7.5,24.56,18.12,32.48,31.85c7.92,13.73,11.88,29.58,11.88,47.53
			c0,17.96-4.07,33.8-12.2,47.53c-8.14,13.73-19.12,24.35-32.96,31.84c-13.84,7.5-29.31,11.25-46.42,11.25
			C1210.82,395.64,1195.61,391.89,1182.09,384.39z M1250.37,351.12c7.07-3.91,12.72-9.77,16.95-17.59
			c4.22-7.81,6.34-17.32,6.34-28.52c0-16.69-4.39-29.52-13.15-38.5c-8.77-8.98-19.49-13.47-32.16-13.47
			c-12.67,0-23.29,4.49-31.84,13.47c-8.56,8.98-12.83,21.81-12.83,38.5c0,16.69,4.17,29.52,12.52,38.5
			c8.34,8.98,18.85,13.47,31.53,13.47C1235.74,356.98,1243.29,355.03,1250.37,351.12z"/>
		<path class="st0" d="M1526.83,227.86c9.29,10.04,13.94,23.82,13.94,41.35c0,6.34-0.64,12.99-1.9,19.96l-18.38,103.62h-70.03
			l16.79-94.74c0.42-3.38,0.63-5.7,0.63-6.97c0-6.55-1.85-11.61-5.54-15.21c-3.7-3.59-8.82-5.39-15.37-5.39
			c-7.82,0-14.31,2.43-19.49,7.29c-5.18,4.86-8.61,11.62-10.3,20.28v-0.32l-16.79,95.06h-70.34l41.51-234.48h70.34l-14.57,82.7
			c6.97-8.45,15.53-15.26,25.66-20.44c10.14-5.17,21.44-7.76,33.9-7.76C1504.23,212.81,1517.54,217.82,1526.83,227.86z"/>
		<path class="st0" d="M1771.77,214.07l-31.69,178.71h-70.34l4.75-26.93c-6.97,8.45-15.53,15.26-25.67,20.44
			c-10.14,5.18-21.44,7.76-33.9,7.76c-17.32,0-30.63-5.02-39.92-15.05c-9.3-10.03-13.94-23.81-13.94-41.35
			c0-6.34,0.64-12.99,1.9-19.96l18.38-103.62h70.03l-16.79,94.74c-0.42,3.38-0.63,5.7-0.63,6.97c0,6.55,1.85,11.62,5.54,15.21
			c3.69,3.6,8.82,5.39,15.37,5.39c7.6,0,14.05-2.43,19.33-7.29c5.28-4.85,8.77-11.51,10.46-19.96l16.79-95.06H1771.77z"/>
		<path class="st0" d="M1892.02,218.98c9.19-4.75,19.59-7.13,31.21-7.13c17.95,0,32.43,6.02,43.41,18.06
			c10.98,12.04,16.48,28.73,16.48,50.06c0,8.03-0.74,15.84-2.22,23.45c-3.38,18.8-9.51,35.12-18.38,48.95
			c-8.87,13.84-19.54,24.4-32,31.69c-12.47,7.29-25.66,10.93-39.61,10.93c-11.62,0-21.18-2.37-28.68-7.13
			c-7.5-4.75-12.73-11.25-15.68-19.49l-4.44,24.4h-70.34l41.51-234.48h70.34l-14.26,80.17
			C1875.27,230.23,1882.83,223.74,1892.02,218.98z M1910.24,295.82c0-7.18-1.9-12.72-5.7-16.63c-3.8-3.91-8.98-5.86-15.53-5.86
			c-7.6,0-14.31,2.64-20.12,7.92c-5.81,5.28-9.56,12.68-11.25,22.18c-0.43,1.9-0.64,4.44-0.64,7.6c0,7.18,1.9,12.73,5.7,16.63
			c3.8,3.91,8.98,5.86,15.53,5.86c7.6,0,14.31-2.64,20.12-7.92c5.81-5.28,9.56-12.68,11.25-22.18
			C1910.02,301.53,1910.24,298.99,1910.24,295.82z"/>
	</g>
	<g>
		<path class="st2" d="M323.25,306.24l-11.71,7.34l40.67,68.93c2.68,4.54-0.59,10.27-5.87,10.27h-35.43c-2.45,0-4.72-1.32-5.93-3.45
			l-38.18-67.43c-10.59-0.94-20.55-3.91-29.57-8.55l0,72.62c0,3.76-3.05,6.81-6.81,6.81h-30.74c-3.76,0-6.81-3.05-6.81-6.81v-132.5
			c0-3.76,3.05-6.81,6.81-6.81l32.66,0c2.97,0,5.63,1.91,6.48,4.75c4.56,15.28,18.71,26.43,35.45,26.43
			c8.03,0,15.49-2.58,21.56-6.95c2.83-2.03,3.61-5.91,1.87-8.92l-4.23-7.32c-2.04-3.55,0.53-7.99,4.61-7.99h68.27
			c4.1,0,6.65,4.44,4.61,7.99l-17.07,29.55l-17.07,29.57c-2.04,3.53-7.18,3.53-9.22,0L323.25,306.24z"/>
		<path class="st2" d="M355.48,235.05h-44.65c-2.78-17.64-18.12-31.21-36.56-31.21c-10.25,0-19.56,4.2-26.26,10.97l7.08,12.24
			c2.04,3.55-0.5,7.99-4.61,7.99h-68.27c-4.1,0-6.65-4.44-4.61-7.99l17.07-29.55l17.07-29.57c2.04-3.53,7.18-3.53,9.22,0l4.49,7.78
			c13.61-10.23,30.49-16.28,48.83-16.28C317.29,159.43,352.5,192.8,355.48,235.05z"/>
	</g>
</g>
</svg>
